<svg width="100" height="100" viewBox="0 0 100 100" fill="none" xmlns="http://www.w3.org/2000/svg">
<g filter="url(#filter0_d_9_24)">
<path d="M50 0C40.111 0 30.444 2.93245 22.2215 8.42652C13.9991 13.9206 7.59043 21.7295 3.80605 30.8658C0.0216643 40.0021 -0.968503 50.0555 0.960758 59.7545C2.89002 69.4536 7.65206 78.3627 14.6447 85.3553C21.6373 92.348 30.5465 97.11 40.2455 99.0393C49.9446 100.969 59.9979 99.9784 69.1342 96.194C78.2705 92.4096 86.0794 86.001 91.5735 77.7785C97.0676 69.5561 100 59.8891 100 50C99.9857 36.7436 94.7132 24.0342 85.3395 14.6605C75.9658 5.28678 63.2564 0.0143378 50 0V0ZM50 91.6667C41.7591 91.6667 33.7033 89.223 26.8513 84.6446C19.9992 80.0662 14.6587 73.5587 11.505 65.9451C8.35139 58.3316 7.52625 49.9538 9.13397 41.8712C10.7417 33.7887 14.7101 26.3644 20.5372 20.5372C26.3644 14.71 33.7887 10.7417 41.8713 9.13395C49.9538 7.52623 58.3316 8.35137 65.9452 11.505C73.5588 14.6587 80.0662 19.9992 84.6446 26.8512C89.223 33.7033 91.6667 41.7591 91.6667 50C91.6546 61.047 87.2608 71.638 79.4494 79.4494C71.638 87.2608 61.047 91.6545 50 91.6667V91.6667ZM70.8334 50C70.8334 51.1051 70.3944 52.1649 69.613 52.9463C68.8316 53.7277 67.7718 54.1667 66.6667 54.1667H54.1667V66.6667C54.1667 67.7717 53.7277 68.8316 52.9463 69.613C52.1649 70.3944 51.1051 70.8333 50 70.8333C48.895 70.8333 47.8351 70.3944 47.0537 69.613C46.2723 68.8316 45.8334 67.7717 45.8334 66.6667V54.1667H33.3334C32.2283 54.1667 31.1685 53.7277 30.3871 52.9463C29.6057 52.1649 29.1667 51.1051 29.1667 50C29.1667 48.8949 29.6057 47.8351 30.3871 47.0537C31.1685 46.2723 32.2283 45.8333 33.3334 45.8333H45.8334V33.3333C45.8334 32.2283 46.2723 31.1685 47.0537 30.3871C47.8351 29.6057 48.895 29.1667 50 29.1667C51.1051 29.1667 52.1649 29.6057 52.9463 30.3871C53.7277 31.1685 54.1667 32.2283 54.1667 33.3333V45.8333H66.6667C67.7718 45.8333 68.8316 46.2723 69.613 47.0537C70.3944 47.8351 70.8334 48.8949 70.8334 50Z" fill="#DFDFDF"/>
<path d="M92.1667 50.0006V50C92.1667 41.6602 89.6936 33.5077 85.0603 26.5735C80.427 19.6392 73.8415 14.2346 66.1365 11.0431C58.4316 7.85159 49.9532 7.01654 41.7737 8.64355C33.5942 10.2706 26.0808 14.2866 20.1837 20.1837C14.2866 26.0808 10.2706 33.5942 8.64358 41.7737C7.01657 49.9532 7.85161 58.4315 11.0431 66.1365C14.2346 73.8414 19.6392 80.427 26.5735 85.0603C33.5077 89.6936 41.6602 92.1667 50 92.1667V91.6667L50.0006 92.1667C61.18 92.1544 71.8979 87.708 79.803 79.8029C87.708 71.8979 92.1544 61.1799 92.1667 50.0006ZM54.1667 53.6667H53.6667V54.1667V66.6667C53.6667 67.6391 53.2804 68.5718 52.5927 69.2594C51.9051 69.947 50.9725 70.3333 50 70.3333C49.0276 70.3333 48.0949 69.947 47.4073 69.2594C46.7197 68.5718 46.3334 67.6391 46.3334 66.6667V54.1667V53.6667H45.8334H33.3334C32.3609 53.6667 31.4283 53.2804 30.7406 52.5927C30.053 51.9051 29.6667 50.9725 29.6667 50C29.6667 49.0275 30.053 48.0949 30.7406 47.4073C31.4283 46.7196 32.3609 46.3333 33.3334 46.3333H45.8334H46.3334V45.8333V33.3333C46.3334 32.3609 46.7197 31.4282 47.4073 30.7406C48.0949 30.053 49.0276 29.6667 50 29.6667C50.9725 29.6667 51.9051 30.053 52.5927 30.7406C53.2804 31.4282 53.6667 32.3609 53.6667 33.3333V45.8333V46.3333H54.1667H66.6667C67.6391 46.3333 68.5718 46.7196 69.2594 47.4073C69.9471 48.0949 70.3334 49.0275 70.3334 50C70.3334 50.9725 69.9471 51.9051 69.2594 52.5927C68.5718 53.2804 67.6391 53.6667 66.6667 53.6667H54.1667ZM22.4993 8.84225C30.6395 3.40317 40.2097 0.500053 49.9998 0.5C63.1237 0.514267 75.706 5.73404 84.986 15.0141C94.2661 24.2941 99.4858 36.8765 99.5 50.0005C99.4999 59.7905 96.5968 69.3607 91.1578 77.5007C85.7186 85.641 77.9878 91.9855 68.9428 95.732C59.8979 99.4786 49.9451 100.459 40.3431 98.5489C30.741 96.6389 21.9209 91.9245 14.9982 85.0018C8.07554 78.0791 3.36112 69.259 1.45115 59.657C-0.458817 50.0549 0.521448 40.1021 4.26799 31.0572C8.01452 22.0122 14.3591 14.2814 22.4993 8.84225Z" stroke="black"/>
</g>
<defs>
<filter id="filter0_d_9_24" x="-4" y="0" width="108" height="108" filterUnits="userSpaceOnUse" color-interpolation-filters="sRGB">
<feFlood flood-opacity="0" result="BackgroundImageFix"/>
<feColorMatrix in="SourceAlpha" type="matrix" values="0 0 0 0 0 0 0 0 0 0 0 0 0 0 0 0 0 0 127 0" result="hardAlpha"/>
<feOffset dy="4"/>
<feGaussianBlur stdDeviation="2"/>
<feComposite in2="hardAlpha" operator="out"/>
<feColorMatrix type="matrix" values="0 0 0 0 0 0 0 0 0 0 0 0 0 0 0 0 0 0 0.25 0"/>
<feBlend mode="normal" in2="BackgroundImageFix" result="effect1_dropShadow_9_24"/>
<feBlend mode="normal" in="SourceGraphic" in2="effect1_dropShadow_9_24" result="shape"/>
</filter>
</defs>
</svg>
